<svg width="134" height="25" viewBox="0 0 134 25" fill="none" xmlns="http://www.w3.org/2000/svg"><g class="transform logo-eye"><path d="M12.4904 1.22851C16.059 1.16708 18.6432 3.31697 19.6277 7.37104H20.5506V2.21131C18.4587 0.859955 15.2592 0 12.3058 0C5.29148 0 0 4.79118 0 11.8551C0 18.919 5.29148 23.7102 12.3058 23.7102C15.2592 23.7102 18.4587 22.8502 20.5506 21.4989V16.3391H19.6277C18.6432 20.3932 16.059 22.5431 12.4904 22.4817C7.56805 22.4202 5.16842 17.6905 5.16842 11.7937C5.16842 5.89683 7.62958 1.28993 12.4904 1.22851Z" fill="black"/><path d="M12.7978 17.8134C10.7673 17.8134 9.59826 15.3564 9.59826 12.0394C9.59826 8.72248 10.7673 6.26546 12.7978 6.26546C14.8282 6.26546 15.9973 8.66105 15.9973 12.0394C15.9357 15.3564 14.8282 17.8134 12.7978 17.8134Z" fill="black"/></g><path class="transform" d="M48.3619 17.7518V18.6732H41.7167V17.7518C42.7627 17.6904 43.0704 17.0761 43.0704 15.9705V10.0122C43.0704 7.92373 42.3936 6.51095 40.6707 6.51095C39.0095 6.51095 38.1481 8.04658 38.1481 9.95077C38.1481 10.0736 38.1481 15.9705 38.1481 15.9705C38.1481 17.0761 38.4557 17.6289 39.4402 17.7518V18.6732H32.795V17.7518C33.841 17.6904 34.0872 17.0761 34.0872 15.9705V10.0122C34.0872 7.92373 33.4719 6.51095 31.6875 6.51095C30.0878 6.51095 29.1648 8.04658 29.1648 9.95077V15.9705C29.1648 17.0761 29.4725 17.6289 30.5185 17.7518V18.6732H23.8118V17.7518C24.8578 17.6904 25.1655 17.0761 25.1655 15.9705V8.78369C25.1655 7.67803 24.8578 7.1252 23.8118 7.06378V6.1424L28.2419 5.09817H28.9187V7.00235C29.9032 5.71242 31.2568 5.09817 32.9181 5.09817C35.2562 5.09817 36.7329 6.08097 37.4712 7.6166C38.4557 5.95812 39.9939 5.09817 41.9013 5.09817C45.5315 5.09817 47.0082 7.3709 47.0082 10.5036V16.0319C47.0082 17.0761 47.3159 17.6904 48.3619 17.7518Z" fill="black"/><path class="transform" d="M64.6669 11.9778C64.6669 16.2776 62.3903 18.9189 58.6371 18.9189C56.7912 18.9189 55.4991 18.1818 54.5761 17.199V22.3587C54.5761 23.4643 54.8838 24.0172 55.8683 24.0786V25H49.2231V24.0786C50.2691 24.0172 50.5152 23.4029 50.5152 22.3587V8.78369C50.5152 7.67803 50.2076 7.1252 49.2231 7.06378V6.1424L53.8378 5.09817H54.5146V6.81808C55.4376 5.83527 56.7912 5.09817 58.5755 5.09817C62.3288 5.09817 64.6669 7.73945 64.6669 11.9778ZM60.729 11.9778C60.729 8.72226 59.8676 6.20382 57.7141 6.20382C55.6221 6.20382 54.5146 8.47656 54.5146 11.9778C54.5146 15.479 55.6221 17.7518 57.7141 17.7518C59.8676 17.8132 60.729 15.2948 60.729 11.9778Z" fill="black"/><path class="transform" d="M73.2195 5.09817C69.2816 5.09817 65.9591 7.49375 65.9591 11.9778C65.9591 16.5233 69.3432 18.9189 73.2195 18.9189C77.1573 18.9189 80.4799 16.5233 80.4799 11.9778C80.4799 7.49375 77.0958 5.09817 73.2195 5.09817ZM73.2195 17.8132C71.189 17.8132 70.02 15.3562 70.02 12.0392C70.02 8.72226 71.189 6.26525 73.2195 6.26525C75.2499 6.26525 76.419 8.66084 76.419 12.0392C76.3574 15.3562 75.2499 17.8132 73.2195 17.8132Z" fill="black"/><path class="transform" d="M88.6629 10.4421C90.7549 11.4249 93.3391 12.592 92.4162 15.6633C91.8009 17.8131 89.7089 18.9188 86.9401 18.9188C85.2173 18.9188 83.0023 18.4274 81.7101 17.4446V14.0662H82.387C83.0022 16.7075 85.0942 17.936 86.9401 17.936C88.0476 17.936 89.0321 17.4446 89.2782 16.5232C89.5858 15.049 88.1707 14.5576 86.3248 13.7591C83.6175 12.5306 81.4025 11.1792 82.2639 7.86224C82.8177 5.65093 85.2173 5.03667 87.2477 5.0981C88.6629 5.0981 90.2011 5.5895 91.4317 6.51088V9.52072H90.8164C90.1396 7.00228 89.0936 6.01948 87.2477 6.01948C86.5094 6.01948 85.4634 6.26518 85.2788 7.43226C85.1558 8.9679 86.817 9.58215 88.6629 10.4421Z" fill="black"/><path class="transform" d="M106.876 11.7935C97.831 11.7935 97.831 11.7935 97.831 11.7935C98.2002 17.3218 103.922 17.6904 106.199 15.0491L106.691 15.479C105.707 17.3832 103.676 18.9189 101.03 18.9189C97.2772 18.9189 93.8316 16.5233 93.8316 11.7935C93.8316 7.61661 96.7235 5.09817 100.784 5.09817C104.784 5.09817 106.937 7.92373 106.876 11.3636V11.7935ZM97.831 10.3807H103.307C103.307 8.41513 102.876 5.95812 100.784 6.01955C99.1231 6.08097 98.0156 7.73945 97.831 10.3807Z" fill="black"/><path class="transform" d="M109.398 16.5846C109.398 15.1104 110.506 14.189 111.859 14.189C113.213 14.189 114.32 15.1104 114.32 16.5846C114.32 18.1203 113.213 18.9802 111.859 18.9802C110.506 18.9188 109.398 18.0588 109.398 16.5846Z" fill="black"/><path class="transform" d="M123.55 17.7518V18.6732H116.905V17.7518C117.951 17.6904 118.259 17.0761 118.259 15.9705V8.78369C118.259 7.67803 117.951 7.1252 116.905 7.06378V6.1424L121.52 5.09817H122.196V15.9705C122.196 17.0761 122.442 17.6904 123.55 17.7518Z" fill="black"/><path class="transform" d="M133.333 17.076C132.718 18.0588 131.549 18.9802 129.826 18.9802C127.857 18.9802 125.888 18.2431 125.888 15.0489V6.75653H123.919V5.34374C126.381 5.34374 128.042 3.56241 128.596 1.28967C129.396 1.28967 129.826 1.28967 129.826 1.28967V5.34374H132.472V6.75653H129.826V14.9875C129.826 15.9089 130.318 16.4003 130.872 16.646C131.549 16.8917 132.226 16.7074 132.841 16.2775L133.333 17.076Z" fill="black"/></svg>