<?xml version="1.0" encoding="utf-8"?>
<!-- Generator: Adobe Illustrator 25.2.3, SVG Export Plug-In . SVG Version: 6.00 Build 0)  -->
<svg version="1.1" id="Layer_1" xmlns="http://www.w3.org/2000/svg" xmlns:xlink="http://www.w3.org/1999/xlink" x="0px" y="0px"
	 viewBox="0 0 384 450" style="enable-background:new 0 0 384 450;" xml:space="preserve">
<style type="text/css">
	.st0{fill:#010101;}
</style>
<g>
	<path class="st0" d="M233.4,26.4c66.7-1.1,115,39,133.4,114.8H384V44.8C344.9,19.5,285.1,3.5,229.9,3.5C98.9,3.5,0,93,0,225
		c0,132,98.9,221.5,229.9,221.5c55.2,0,115-16.1,154.1-41.3v-96.4h-17.2c-18.4,75.8-66.7,115.9-133.4,114.8
		c-92-1.1-136.8-89.5-136.8-199.7C96.6,113.7,142.6,27.6,233.4,26.4z"/>
	<path class="st0" d="M239.1,336.3c-37.9,0-59.8-45.9-59.8-107.9c0-62,21.8-107.9,59.8-107.9c37.9,0,59.8,44.8,59.8,107.9
		C297.8,290.4,277.1,336.3,239.1,336.3z"/>
</g>
</svg>
