<svg xmlns="http://www.w3.org/2000/svg" viewBox="0 0 120 120"><defs><style>.cls-1{fill:#fff7ee;}.cls-2{fill:#fc493c;}</style></defs><g id="buttons-red--contact"><circle class="cls-1" cx="60" cy="60" r="59"/><path class="cls-2" d="M60,2A58,58,0,1,1,2,60,58.07,58.07,0,0,1,60,2m0-2a60,60,0,1,0,60,60A60,60,0,0,0,60,0Z"/><polygon class="cls-2" points="52.42 52.5 52.42 54.51 64.07 54.51 51.79 66.79 53.21 68.21 65.49 55.93 65.49 67.58 67.5 67.58 67.5 52.5 67.5 52.5 67.5 52.5 52.42 52.5"/><path class="cls-2" d="M67.58,15.76l1.45.93a4.75,4.75,0,0,1-4.21,1.44c-2.74-.29-4.38-1.92-4.12-4.36s2.2-3.69,5-3.39a4.64,4.64,0,0,1,3.72,2.27l-1.61.6a2.65,2.65,0,0,0-2.28-1.44c-1.73-.18-3,.54-3.14,2.14s.89,2.57,2.63,2.75A2.67,2.67,0,0,0,67.58,15.76Z"/><path class="cls-2" d="M70.41,14.89c.79-2.32,3-3.11,5.68-2.18s4,2.87,3.16,5.2-3,3.11-5.68,2.19S69.62,17.22,70.41,14.89Zm7.22,2.47c.51-1.49-.29-2.7-2-3.28S72.54,14,72,15.45s.28,2.69,2,3.28S77.12,18.85,77.63,17.36Z"/><path class="cls-2" d="M90.06,20.16l-3.92,6.22-1.25-.79-1.62-7.3-2.84,4.49-1.37-.86L83,15.7l1.51.95L86,23.56l2.69-4.27Z"/><path class="cls-2" d="M96.67,28.33l-2.3-2.24-4.13,4.22L89,29.13l4.13-4.22-2.28-2.23,1-1,5.78,5.65Z"/><path class="cls-2" d="M97.11,36.38l-2.58-3.62L92.81,33l-1-1.47L100,30.47l1.06,1.5L97.35,39.4l-1-1.48Zm.7-1.37,1.56-3-3.32.49Z"/><path class="cls-2" d="M102.21,44.7l-.09,1.71a4.74,4.74,0,0,1-3.34-2.94c-1.11-2.52-.49-4.75,1.75-5.73s4.3.07,5.43,2.67a4.67,4.67,0,0,1-.13,4.35l-1.32-1.1a2.63,2.63,0,0,0,.12-2.69c-.7-1.6-1.93-2.32-3.41-1.67s-1.79,2.05-1.09,3.64A2.67,2.67,0,0,0,102.21,44.7Z"/><path class="cls-2" d="M108.06,53.9l-.66-3.14L101.63,52l-.35-1.65,5.77-1.22L106.38,46l1.42-.3,1.68,7.91Z"/><path class="cls-2" d="M103.84,63.48l-1.41,0-.12-7.57,7.35-.12.12,7.47-1.41,0-.09-5.8-1.51,0,.07,4.84-1.4,0-.08-4.84-1.62,0Z"/><path class="cls-2" d="M107,73.05l-3.68-6.28-1.07,5.54-1.38-.26,1.54-8,1.12.22,3.68,6.28,1-5.19,1.38.27-1.47,7.64Z"/><path class="cls-2" d="M103,73.19l1.29.47-1.66,4.53-1.28-.47Z"/><path class="cls-2" d="M100.48,89.19l-6.3-3.79.75-1.26,7.28-1.78-4.56-2.74.84-1.4,6.3,3.79-.92,1.53L97,85.19l4.32,2.6Z"/><path class="cls-2" d="M96.17,88.87c1.76,1.72,1.53,4-.47,6.07s-4.3,2.33-6.06.61-1.53-4,.47-6.07S94.42,87.15,96.17,88.87Zm-5.33,5.46c1.12,1.1,2.56.9,3.82-.4S96.1,91.2,95,90.1s-2.55-.91-3.83.4S89.71,93.23,90.84,94.33Z"/><path class="cls-2" d="M83.15,104.2l-2.08-3.28c-1.18-1.86-.75-3.9,1.5-5.33s4.29-1,5.47.91l2.08,3.28-1.42.9-2-3.18a2.45,2.45,0,0,0-4.13,2.63l2,3.17Z"/><path class="cls-2" d="M71.28,103.36c-.49-1.36.46-2.78,2.91-3.67a6.74,6.74,0,0,1,4.73-.14L78.4,101a5,5,0,0,0-3.77.07c-1.41.51-2,1-1.81,1.61s1,.47,2.61,0c2-.55,4-.78,4.57.7s-.73,2.79-2.86,3.56a6.46,6.46,0,0,1-4.08.29l.47-1.41a4.88,4.88,0,0,0,3.13-.2c.94-.33,2-.91,1.79-1.55s-1.22-.29-2.63.1C73.55,104.78,71.83,104.88,71.28,103.36Z"/><path class="cls-2" d="M51.47,104.07l-1.42-.95a4.75,4.75,0,0,1,4.23-1.36c2.75.34,4.35,2,4,4.45s-2.27,3.65-5.08,3.29a4.67,4.67,0,0,1-3.68-2.34l1.63-.57a2.63,2.63,0,0,0,2.25,1.48c1.73.22,3-.47,3.18-2.08s-.84-2.58-2.57-2.8A2.68,2.68,0,0,0,51.47,104.07Z"/><path class="cls-2" d="M48.66,104.89c-.84,2.31-3,3-5.72,2.07s-3.9-3-3.06-5.27,3-3,5.72-2.07S49.5,102.58,48.66,104.89Zm-7.17-2.61c-.54,1.48.23,2.7,1.94,3.32s3.09.18,3.63-1.3-.23-2.7-2-3.32S42,100.8,41.49,102.28Z"/><path class="cls-2" d="M29.15,99.21l4-6.13,1.23.81,1.47,7.33,2.93-4.43,1.35.9-4,6.13-1.49-1L33.28,95.9l-2.78,4.21Z"/><path class="cls-2" d="M22.68,90.87l2.25,2.3L29.15,89l1.17,1.21L26.1,94.37l2.23,2.28-1,1-5.65-5.78Z"/><path class="cls-2" d="M22.41,82.84l2.49,3.67,1.73-.22,1,1.48-8.27.92-1-1.52,3.89-7.36,1,1.5Zm-.74,1.35-1.62,2.94,3.34-.42Z"/><path class="cls-2" d="M17.48,74.39l.13-1.71a4.76,4.76,0,0,1,3.27,3c1.05,2.55.39,4.76-1.88,5.69s-4.29-.17-5.37-2.79a4.66,4.66,0,0,1,.23-4.35l1.3,1.14A2.61,2.61,0,0,0,15,78.07c.66,1.61,1.88,2.36,3.37,1.74s1.83-2,1.17-3.61A2.68,2.68,0,0,0,17.48,74.39Z"/><path class="cls-2" d="M11.83,65.12l.6,3.15,5.79-1.1.32,1.65-5.8,1.1.6,3.14-1.42.27L10.4,65.39Z"/><path class="cls-2" d="M16.29,55.59l1.4,0-.12,7.57-7.35-.12.12-7.46,1.41,0-.09,5.8,1.51,0,.08-4.84,1.4,0-.07,4.84,1.61,0Z"/><path class="cls-2" d="M13.32,46l3.54,6.36L18,46.8l1.38.3-1.7,8-1.12-.24-3.55-6.36-1.11,5.17-1.37-.3,1.63-7.61Z"/><path class="cls-2" d="M17.33,45.92l-1.28-.49,1.76-4.49,1.27.5Z"/><path class="cls-2" d="M20.13,30l6.22,3.92-.78,1.25-7.31,1.62,4.5,2.83L21.89,41l-6.22-3.92,1-1.51,6.91-1.5-4.26-2.69Z"/><path class="cls-2" d="M24.44,30.37c-1.71-1.75-1.43-4.05.62-6.06s4.35-2.23,6.07-.47,1.44,4.06-.61,6.06S26.16,32.13,24.44,30.37ZM29.9,25c-1.1-1.13-2.53-1-3.83.31s-1.5,2.7-.4,3.83,2.53,1,3.83-.32S31,26.16,29.9,25Z"/><path class="cls-2" d="M37.75,15.34l2,3.32c1.15,1.88.67,3.92-1.61,5.3s-4.3.87-5.44-1l-2-3.32,1.43-.87L34.08,22a2.17,2.17,0,0,0,3.31.74,2.18,2.18,0,0,0,.87-3.28l-1.95-3.21Z"/><path class="cls-2" d="M49.58,16.42c.46,1.37-.51,2.77-3,3.61a6.73,6.73,0,0,1-4.72,0l.54-1.39a5,5,0,0,0,3.77,0c1.41-.48,2-1,1.84-1.57s-1-.49-2.61-.09c-2.05.51-4,.71-4.55-.78s.78-2.78,2.93-3.51a6.35,6.35,0,0,1,4.07-.2l-.49,1.4a4.78,4.78,0,0,0-3.13.13c-1,.31-2,.87-1.82,1.51s1.21.32,2.63,0C47.34,15,49.06,14.89,49.58,16.42Z"/></g></svg>