<svg xmlns="http://www.w3.org/2000/svg" viewBox="0 0 120 120"><defs><style>.cls-1{fill:#fff7ee;}.cls-2{fill:#fc493c;}</style></defs><g id="buttons-red-savior"><circle class="cls-1" cx="60" cy="60" r="59"/><path class="cls-2" d="M60,2A58,58,0,1,1,2,60,58.07,58.07,0,0,1,60,2m0-2a60,60,0,1,0,60,60A60,60,0,0,0,60,0Z"/><polygon class="cls-2" points="52.42 52.5 52.42 54.51 64.07 54.51 51.79 66.79 53.21 68.21 65.49 55.93 65.49 67.58 67.5 67.58 67.5 52.5 67.5 52.5 67.5 52.5 52.42 52.5"/><path class="cls-2" d="M69.69,16.84l-.18,1.6-8.59-1,1-8.34,8.47,1-.18,1.6-6.58-.76-.2,1.72,5.49.63-.18,1.6-5.49-.63L63,16.07Z"/><path class="cls-2" d="M82.61,14.28l-3,7.84L78,21.52,74.58,13.7l-2.17,5.67-1.73-.66,3-7.84,1.9.72L78.81,19l2.06-5.37Z"/><path class="cls-2" d="M92.59,28.71c-1.07,1.27-3,1.14-5.29-.78a7.65,7.65,0,0,1-2.84-4.6L86.14,23a5.74,5.74,0,0,0,2.23,3.69c1.31,1.1,2.18,1.41,2.62.88S90.9,26.37,89.53,25c-1.7-1.7-3.07-3.54-1.91-4.92s3.17-.87,5.16.8a7.42,7.42,0,0,1,2.61,3.87l-1.67.34a5.5,5.5,0,0,0-2-3c-.86-.75-2.06-1.49-2.55-.9s.41,1.38,1.6,2.56C92.7,25.65,93.78,27.3,92.59,28.71Z"/><path class="cls-2" d="M97,35.84l-3-4.09-2,.33-1.22-1.65,9.4-1.4,1.25,1.69-4.12,8.57-1.23-1.67Zm.77-1.57,1.72-3.44-3.78.63Z"/><path class="cls-2" d="M105.18,36.61l-4.65,5.52,7.21.27.84,1.89-9.4-.47L98.36,42l6-7.27Z"/><path class="cls-2" d="M100.83,48.61,109,46.54l.48,1.86-8.14,2.07Z"/><path class="cls-2" d="M106.1,51.46c2.8-.19,4.6,1.76,4.82,5s-1.3,5.44-4.1,5.63-4.59-1.76-4.82-5S103.3,51.65,106.1,51.46Zm.59,8.71c1.79-.12,2.71-1.5,2.57-3.57s-1.23-3.31-3-3.19-2.71,1.49-2.57,3.57S104.89,60.29,106.69,60.17Z"/><path class="cls-2" d="M101.07,70.87,104.32,69l.58-3-2.81-.53.36-1.88,8.25,1.58-1.09,5.69c-.39,2-1.61,3.36-3.4,3a2.67,2.67,0,0,1-2.15-2.8l-3.42,2Zm4.67-.8c-.19,1-.1,1.77.82,1.94s1.3-.51,1.49-1.5l.71-3.72-2.31-.44Z"/><path class="cls-2" d="M99,88.27c-1.61-.93-1.74-2.67-.66-4.54l1.91-3.31-2.35-1.36,1-1.66,7.27,4.2-2.87,5C102.2,88.45,100.61,89.19,99,88.27Zm1-1.7c.83.48,1.44,0,2-.93l1.83-3.18-2.16-1.25-1.83,3.18C99.27,85.33,99.16,86.09,100,86.57Z"/><path class="cls-2" d="M89.31,93.14,88.1,92l5.34-5.76L99.61,92,98.3,93.37l-5-4.59Z"/><path class="cls-2" d="M84.82,104.55l-2.51-3.66c-1.43-2.08-1-4.43,1.49-6.15s4.85-1.26,6.28.81l2.51,3.66L91,100.3l-2.43-3.54A2.8,2.8,0,0,0,84,99.92l2.43,3.54Z"/><path class="cls-2" d="M71.06,103.81c-.57-1.55.5-3.18,3.29-4.21a7.76,7.76,0,0,1,5.41-.2L79.18,101a5.71,5.71,0,0,0-4.31.1c-1.6.6-2.3,1.2-2.06,1.85s1.12.54,3,0c2.32-.64,4.6-.92,5.23.77s-.82,3.2-3.25,4.1a7.39,7.39,0,0,1-4.66.35l.53-1.62a5.5,5.5,0,0,0,3.57-.24c1.08-.39,2.31-1.06,2-1.78s-1.4-.33-3,.13C73.67,105.42,71.7,105.55,71.06,103.81Z"/><path class="cls-2" d="M49.82,103l.2-1.59,8.58,1.09-1.06,8.33-8.46-1.08.2-1.59,6.57.83.22-1.71-5.49-.7.21-1.59,5.48.69.23-1.83Z"/><path class="cls-2" d="M36.86,105.45,40,97.64l1.56.62,3.36,7.87,2.24-5.65,1.73.69L45.75,109l-1.89-.76-3.14-7.44-2.13,5.35Z"/><path class="cls-2" d="M27.05,90.91c1.08-1.26,3-1.11,5.28.84a7.68,7.68,0,0,1,2.79,4.63l-1.69.27a5.72,5.72,0,0,0-2.18-3.72c-1.3-1.11-2.16-1.43-2.62-.9s.08,1.24,1.43,2.62c1.69,1.73,3,3.58,1.86,4.94s-3.19.84-5.15-.85a7.38,7.38,0,0,1-2.56-3.9l1.67-.32a5.44,5.44,0,0,0,1.94,3c.86.75,2,1.51,2.54.92s-.39-1.38-1.57-2.57C26.91,94,25.85,92.31,27.05,90.91Z"/><path class="cls-2" d="M22.67,83.72l3,4.12,2-.31,1.2,1.67-9.42,1.3-1.23-1.71,4.21-8.52L23.58,82Zm-.8,1.57L20.12,88.7l3.79-.59Z"/><path class="cls-2" d="M14.55,82.87l4.72-5.47-7.21-.34-.82-1.91,9.39.58.8,1.87-6,7.2Z"/><path class="cls-2" d="M19.05,71l-8.16,2-.46-1.87,8.17-2Z"/><path class="cls-2" d="M13.81,68c-2.8.15-4.57-1.81-4.76-5.08s1.36-5.43,4.16-5.58,4.57,1.81,4.76,5.08S16.61,67.85,13.81,68Zm-.49-8.71c-1.8.1-2.73,1.46-2.61,3.53s1.19,3.32,3,3.22,2.73-1.45,2.61-3.53S15.12,59.2,13.32,59.3Z"/><path class="cls-2" d="M19.06,48.66l-3.28,1.79-.61,3L18,54l-.38,1.87L9.36,54.19l1.15-5.68c.41-2,1.65-3.34,3.44-3a2.67,2.67,0,0,1,2.12,2.82l3.45-1.94Zm-4.69.74c.21-1,.12-1.76-.8-1.95s-1.3.5-1.5,1.48l-.76,3.72,2.31.47Z"/><path class="cls-2" d="M21.29,31.29c1.6.94,1.71,2.68.62,4.54L20,39.13l2.33,1.38-1,1.65-7.23-4.27,2.92-5C18.11,31.08,19.71,30.35,21.29,31.29ZM20.3,33c-.82-.49-1.44,0-2,.91l-1.86,3.16,2.15,1.27,1.86-3.16C21,34.23,21.13,33.47,20.3,33Z"/><path class="cls-2" d="M31.06,26.53l1.2,1.14-5.41,5.71-6.1-5.78,1.32-1.39L27,30.85Z"/><path class="cls-2" d="M35.73,15.15l2.47,3.69c1.4,2.1,1,4.44-1.58,6.14s-4.86,1.2-6.27-.9l-2.46-3.69,1.59-1.06,2.39,3.57a2.49,2.49,0,0,0,3.82.68,2.49,2.49,0,0,0,.83-3.79l-2.39-3.57Z"/><path class="cls-2" d="M49.44,16.07c.56,1.56-.53,3.17-3.34,4.17a7.73,7.73,0,0,1-5.41.13l.61-1.6a5.7,5.7,0,0,0,4.31-.06c1.6-.57,2.31-1.17,2.07-1.82s-1.11-.55-3-.06c-2.32.61-4.6.87-5.21-.83s.85-3.18,3.3-4.05a7.34,7.34,0,0,1,4.66-.3l-.55,1.61a5.47,5.47,0,0,0-3.57.2c-1.08.37-2.32,1-2.07,1.76s1.4.34,3-.1C46.86,14.43,48.82,14.33,49.44,16.07Z"/></g></svg>