<svg xmlns="http://www.w3.org/2000/svg" viewBox="0 0 100 100"><defs><style>.cls-1{fill:#fff7ee;}.cls-2{fill:#fc493c;}</style></defs><g id="buttons-red--scroll"><circle class="cls-1" cx="50" cy="50" r="49"/><path class="cls-2" d="M50,2A48,48,0,1,1,2,50,48.05,48.05,0,0,1,50,2m0-2a50,50,0,1,0,50,50A50,50,0,0,0,50,0Z"/><polygon class="cls-2" points="58.88 49.95 57.7 48.77 50.84 55.63 50.84 41.16 49.16 41.16 49.16 55.63 42.3 48.77 41.12 49.95 50 58.84 50 58.84 50 58.84 58.88 49.95"/><path class="cls-2" d="M58.39,13.29c-.16,1.37-1.57,2.17-4,1.88a6.37,6.37,0,0,1-4.08-1.89l1-1a4.76,4.76,0,0,0,3.24,1.55c1.41.16,2.16,0,2.22-.6s-.63-.82-2.21-1.14c-2-.4-3.76-1.06-3.59-2.55s1.81-2.06,4-1.81a6.12,6.12,0,0,1,3.59,1.5l-1,1a4.59,4.59,0,0,0-2.75-1.17c-.94-.12-2.11-.08-2.19.55s.92.77,2.29,1C57.06,11.11,58.57,11.76,58.39,13.29Z"/><path class="cls-2" d="M65.75,15.73l1.11,1.2a4.52,4.52,0,0,1-4.23.32c-2.46-.92-3.57-2.82-2.76-5s2.91-2.89,5.44-1.94a4.46,4.46,0,0,1,2.89,3l-1.63.17a2.53,2.53,0,0,0-1.76-1.87c-1.56-.58-2.87-.21-3.41,1.23s.21,2.58,1.77,3.16A2.55,2.55,0,0,0,65.75,15.73Z"/><path class="cls-2" d="M72.08,22.33l-.3-3.1L69.7,17.79l-1.36,2L67,18.84l4-5.76,4,2.75c1.41,1,2,2.36,1.15,3.61a2.21,2.21,0,0,1-2.85.7l.36,3.28Zm1-3.83c.69.47,1.31.66,1.76,0s0-1.16-.65-1.64l-2.59-1.79L70.44,16.7Z"/><path class="cls-2" d="M76.58,21.38c1.78-1.53,4-1.11,5.72,1s1.84,4.28.07,5.8-4,1.11-5.72-1S74.8,22.9,76.58,21.38Zm4.73,5.52c1.14-1,1.07-2.35-.06-3.66s-2.47-1.6-3.61-.63-1.08,2.35.06,3.67S80.17,27.88,81.31,26.9Z"/><path class="cls-2" d="M84.37,36.63l-1.23.62-3-5.83,6.24-3.17.72,1.42-5,2.55Z"/><path class="cls-2" d="M86.39,44l-1.33.36L83.36,38l6.76-1.82.41,1.55-5.42,1.45Z"/><path class="cls-2" d="M86.64,58.65c-1.37-.17-2.16-1.59-1.85-4a6.4,6.4,0,0,1,1.93-4.07l1,1a4.73,4.73,0,0,0-1.57,3.22c-.18,1.41,0,2.16.57,2.23s.83-.62,1.16-2.2c.42-2,1.09-3.75,2.57-3.57s2,1.83,1.79,4a6.11,6.11,0,0,1-1.53,3.58l-1-1a4.61,4.61,0,0,0,1.19-2.73c.12-1,.1-2.12-.54-2.2s-.77.91-1,2.28C88.83,57.34,88.17,58.84,86.64,58.65Z"/><path class="cls-2" d="M84.16,66,83,67.08a4.51,4.51,0,0,1-.3-4.22c.94-2.46,2.85-3.56,5-2.73s2.87,2.93,1.9,5.45a4.47,4.47,0,0,1-3,2.87l-.16-1.64a2.5,2.5,0,0,0,1.88-1.74c.59-1.55.24-2.87-1.2-3.42s-2.58.2-3.17,1.75A2.54,2.54,0,0,0,84.16,66Z"/><path class="cls-2" d="M77.53,72.23l3.1-.27,1.46-2.07-2-1.37.91-1.3,5.73,4L84,75.2c-1,1.4-2.37,2-3.61,1.12a2.21,2.21,0,0,1-.68-2.86l-3.28.34Zm3.82,1c-.48.68-.67,1.31,0,1.75s1.15.06,1.64-.63l1.81-2.58-1.6-1.13Z"/><path class="cls-2" d="M78.45,76.77c1.51,1.78,1.09,4-1,5.71s-4.28,1.82-5.79,0-1.09-3.94,1-5.71S76.94,75,78.45,76.77ZM72.9,81.46c1,1.15,2.34,1.08,3.66,0s1.61-2.47.64-3.61-2.33-1.09-3.66,0S71.93,80.32,72.9,81.46Z"/><path class="cls-2" d="M63.14,84.46l-.62-1.24,5.86-2.93,3.13,6.26-1.43.72-2.52-5Z"/><path class="cls-2" d="M55.74,86.42l-.34-1.33,6.33-1.65,1.76,6.77-1.54.4-1.42-5.43Z"/><path class="cls-2" d="M41.12,86.59c.18-1.37,1.6-2.15,4.06-1.83a6.37,6.37,0,0,1,4.06,2l-1.05,1A4.75,4.75,0,0,0,45,86.09c-1.41-.19-2.16,0-2.24.56s.62.83,2.2,1.18c2,.42,3.75,1.1,3.55,2.59s-1.84,2-4,1.76a6.12,6.12,0,0,1-3.57-1.55l1-1a4.65,4.65,0,0,0,2.73,1.2c.94.13,2.11.11,2.19-.52s-.9-.78-2.27-1.07C42.41,88.79,40.92,88.12,41.12,86.59Z"/><path class="cls-2" d="M33.81,84.06l-1.1-1.21a4.51,4.51,0,0,1,4.23-.27c2.45,1,3.54,2.87,2.7,5s-3,2.85-5.47,1.87a4.47,4.47,0,0,1-2.85-3L33,86.32a2.5,2.5,0,0,0,1.73,1.89c1.55.6,2.87.26,3.43-1.18s-.18-2.58-1.73-3.18A2.54,2.54,0,0,0,33.81,84.06Z"/><path class="cls-2" d="M27.57,77.38l.26,3.11L29.89,82,31.27,80l1.3.92-4.06,5.7-3.94-2.8c-1.39-1-2-2.38-1.1-3.62a2.21,2.21,0,0,1,2.86-.66L26,76.28Zm-1,3.82c-.68-.48-1.31-.68-1.76,0s-.06,1.15.62,1.64L28,84.63,29.14,83Z"/><path class="cls-2" d="M23,78.27c-1.8,1.5-4,1.06-5.71-1s-1.79-4.3,0-5.8,3.95-1.07,5.7,1S24.83,76.77,23,78.27Zm-4.66-5.58c-1.15,1-1.1,2.33,0,3.66S20.84,78,22,77s1.11-2.33,0-3.67S19.53,71.73,18.38,72.69Z"/><path class="cls-2" d="M15.46,62.93l1.23-.61,2.9,5.87-6.28,3.1-.71-1.44,5-2.48Z"/><path class="cls-2" d="M13.54,55.52l1.34-.34,1.61,6.34L9.71,63.24l-.4-1.55,5.45-1.38Z"/><path class="cls-2" d="M13.46,40.89c1.37.19,2.14,1.62,1.81,4.07a6.41,6.41,0,0,1-2,4l-1-1.06A4.79,4.79,0,0,0,14,44.74c.19-1.41,0-2.16-.56-2.23s-.83.61-1.18,2.18c-.44,2-1.13,3.74-2.62,3.54s-2-1.85-1.73-4a6.1,6.1,0,0,1,1.57-3.56l1,1a4.58,4.58,0,0,0-1.22,2.72c-.14.94-.13,2.11.5,2.2s.79-.9,1.09-2.26C11.26,42.17,11.94,40.68,13.46,40.89Z"/><path class="cls-2" d="M16.05,33.58l1.22-1.09a4.52,4.52,0,0,1,.24,4.23c-1,2.45-2.89,3.52-5.06,2.66s-2.82-3-1.83-5.47a4.44,4.44,0,0,1,3-2.83l.14,1.64a2.48,2.48,0,0,0-1.9,1.72c-.62,1.54-.28,2.86,1.15,3.43s2.58-.16,3.2-1.7A2.56,2.56,0,0,0,16.05,33.58Z"/><path class="cls-2" d="M22.77,27.39l-3.1.24-1.48,2.05,1.92,1.39-.93,1.29-5.67-4.1,2.83-3.92c1-1.38,2.4-2,3.63-1.07a2.23,2.23,0,0,1,.64,2.87l3.28-.29Zm-3.81-1c.49-.68.69-1.3.06-1.76s-1.15-.07-1.65.61l-1.85,2.56,1.59,1.15Z"/><path class="cls-2" d="M21.9,22.87c-1.49-1.81-1-4,1.06-5.71s4.32-1.76,5.81.05,1,4-1.07,5.7S23.38,24.67,21.9,22.87Zm5.61-4.63c-1-1.16-2.33-1.11-3.67,0s-1.64,2.44-.69,3.6,2.33,1.12,3.67,0S28.46,19.4,27.51,18.24Z"/><path class="cls-2" d="M37.31,15.37l.6,1.24L32,19.47,29,13.17l1.44-.7,2.45,5.06Z"/><path class="cls-2" d="M44.71,13.51,45,14.85l-6.36,1.57L37,9.62l1.55-.38L39.9,14.7Z"/></g></svg>